<svg width="512" height="512" viewBox="0 0 512 512" fill="none" xmlns="http://www.w3.org/2000/svg">
<path d="M116.552 47.3011C157.828 19.7214 206.355 5.00054 255.997 5C322.545 5.07268 386.346 31.5409 433.403 78.5973C480.46 125.654 506.928 189.457 507 256.005C506.999 305.647 492.278 354.173 464.699 395.448C437.119 436.725 397.918 468.896 352.054 487.894C306.189 506.891 255.722 511.862 207.032 502.177C158.343 492.492 113.619 468.587 78.5163 433.484C43.4133 398.381 19.5079 353.657 9.82301 304.968C0.138119 256.278 5.10876 205.811 24.1064 159.946C43.104 114.082 75.2752 74.8814 116.552 47.3011ZM282.333 341.333V282.333H341.333C348.318 282.333 355.016 279.559 359.954 274.621C364.892 269.682 367.667 262.984 367.667 256C367.667 249.016 364.892 242.318 359.954 237.38C355.016 232.441 348.318 229.667 341.333 229.667H282.333V170.667C282.333 163.683 279.559 156.985 274.621 152.046C269.682 147.108 262.984 144.333 256 144.333C249.016 144.333 242.318 147.108 237.38 152.046C232.441 156.985 229.667 163.683 229.667 170.667V229.667H170.667C163.683 229.667 156.985 232.441 152.046 237.38C147.108 242.318 144.333 249.016 144.333 256C144.333 262.984 147.108 269.682 152.046 274.621C156.985 279.559 163.683 282.333 170.667 282.333H229.667V341.333C229.667 348.317 232.441 355.015 237.38 359.954C242.318 364.892 249.016 367.667 256 367.667C262.984 367.667 269.682 364.892 274.621 359.954C279.559 355.015 282.333 348.317 282.333 341.333Z" fill="white" stroke="black" stroke-width="10"/>
</svg>
