<svg width="24" height="24" viewBox="0 0 24 24" fill="none" xmlns="http://www.w3.org/2000/svg">
<g clip-path="url(#clip0_15_123)">
<path d="M23.8908 16.7373C23.7716 16.6049 23.5826 16.5607 23.4171 16.6267C21.9746 17.2011 19.6395 18.3181 18.0604 18.3181C16.7501 18.3181 15.4601 18.1141 14.2261 17.7117L12.9609 17.22C10.8296 16.2531 9.02119 14.7057 7.731 12.745C6.40537 10.7302 5.70464 8.38485 5.70464 5.96254C5.70464 4.38332 6.79884 2.02542 7.3732 0.583026C7.43911 0.417511 7.39491 0.228464 7.26253 0.109307C7.13011 -0.00984881 6.9375 -0.0338488 6.77977 0.0490262C2.59786 2.24943 0 6.55767 0 11.2924C0 18.2993 5.70056 23.9999 12.7074 23.9999C17.4423 23.9999 21.7506 21.402 23.951 17.22C24.034 17.0624 24.0099 16.8697 23.8908 16.7373Z" fill="white"/>
<path d="M14.3098 4.58541C14.3697 4.40115 14.6303 4.40115 14.6902 4.58541L15.4654 6.97123C15.4922 7.05363 15.569 7.10942 15.6556 7.10942H18.1642C18.358 7.10942 18.4385 7.35735 18.2818 7.47123L16.2523 8.94574C16.1822 8.99667 16.1528 9.08694 16.1796 9.16935L16.9548 11.5552C17.0147 11.7394 16.8038 11.8927 16.6471 11.7788L14.6176 10.3043C14.5475 10.2533 14.4525 10.2533 14.3824 10.3043L12.3529 11.7788C12.1962 11.8927 11.9853 11.7394 12.0452 11.5552L12.8204 9.16935C12.8472 9.08694 12.8178 8.99667 12.7477 8.94574L10.7182 7.47123C10.5615 7.35735 10.642 7.10942 10.8358 7.10942H13.3444C13.431 7.10942 13.5078 7.05363 13.5346 6.97123L14.3098 4.58541Z" fill="white"/>
</g>
<defs>
<clipPath id="clip0_15_123">
<rect width="24" height="24" fill="white"/>
</clipPath>
</defs>
</svg>
