<svg width="24" height="24" viewBox="0 0 24 24" fill="none" xmlns="http://www.w3.org/2000/svg">
<g clip-path="url(#clip0_15_124)">
<mask id="mask0_15_124" style="mask-type:alpha" maskUnits="userSpaceOnUse" x="0" y="0" width="24" height="24">
<path d="M24 0H0V24H24V0Z" fill="white"/>
</mask>
<g mask="url(#mask0_15_124)">
<path d="M12 17.3019C14.9282 17.3019 17.3019 14.9282 17.3019 12C17.3019 9.07182 14.9282 6.69806 12 6.69806C9.07182 6.69806 6.69806 9.07182 6.69806 12C6.69806 14.9282 9.07182 17.3019 12 17.3019Z" fill="white"/>
<path d="M12 18.169C8.59849 18.169 5.83112 15.4016 5.83112 12.0001C5.83112 8.59861 8.59849 5.83124 12 5.83124C15.4015 5.83124 18.1689 8.59861 18.1689 12.0001C18.1689 15.4016 15.4015 18.169 12 18.169ZM12 7.56499C9.55454 7.56499 7.56499 9.55455 7.56499 12C7.56499 14.4455 9.55454 16.435 12 16.435C14.4454 16.435 16.435 14.4455 16.435 12C16.435 9.55455 14.4454 7.56499 12 7.56499Z" fill="white"/>
<path d="M12 4.55256C11.5212 4.55256 11.1331 4.16441 11.1331 3.68563V0.866935C11.1331 0.388156 11.5212 0 12 0C12.4788 0 12.8669 0.388156 12.8669 0.866935V3.68563C12.8669 4.16441 12.4788 4.55256 12 4.55256Z" fill="white"/>
<path d="M12 24C11.5212 24 11.1331 23.6119 11.1331 23.1331V20.3144C11.1331 19.8356 11.5212 19.4474 12 19.4474C12.4788 19.4474 12.8669 19.8356 12.8669 20.3144V23.1331C12.8669 23.612 12.4788 24 12 24Z" fill="white"/>
<path d="M23.1331 12.8669H20.3144C19.8356 12.8669 19.4474 12.4788 19.4474 12C19.4474 11.5212 19.8356 11.1331 20.3144 11.1331H23.1331C23.6118 11.1331 24 11.5212 24 12C24 12.4788 23.612 12.8669 23.1331 12.8669Z" fill="white"/>
<path d="M3.68563 12.8669H0.866935C0.388156 12.8669 0 12.4788 0 12C0 11.5212 0.388156 11.1331 0.866935 11.1331H3.68563C4.16441 11.1331 4.55256 11.5212 4.55256 12C4.55256 12.4788 4.16441 12.8669 3.68563 12.8669Z" fill="white"/>
<path d="M17.8792 6.98771C17.6574 6.98771 17.4354 6.9031 17.2662 6.73376C16.9277 6.39519 16.9277 5.84625 17.2662 5.5078L19.2594 3.51477C19.5979 3.1762 20.1469 3.17609 20.4853 3.51477C20.8239 3.85334 20.8239 4.40228 20.4853 4.74073L18.4922 6.73376C18.323 6.9031 18.101 6.98771 17.8792 6.98771Z" fill="white"/>
<path d="M4.12765 20.7393C3.90583 20.7393 3.68389 20.6547 3.51467 20.4853C3.1761 20.1468 3.1761 19.5978 3.51467 19.2594L5.50781 17.2662C5.84638 16.9277 6.39532 16.9277 6.73377 17.2662C7.07234 17.6048 7.07234 18.1537 6.73377 18.4922L4.74063 20.4853C4.5714 20.6547 4.34958 20.7393 4.12765 20.7393Z" fill="white"/>
<path d="M19.8722 20.7393C19.6504 20.7393 19.4285 20.6547 19.2592 20.4853L17.2661 18.4922C16.9275 18.1536 16.9275 17.6047 17.2661 17.2662C17.6047 16.9277 18.1536 16.9277 18.4921 17.2662L20.4852 19.2594C20.8238 19.5979 20.8238 20.1469 20.4852 20.4853C20.316 20.6547 20.0942 20.7393 19.8722 20.7393Z" fill="white"/>
<path d="M6.12079 6.98771C5.89897 6.98771 5.67703 6.9031 5.50781 6.73376L3.51467 4.74073C3.1761 4.40217 3.1761 3.85334 3.51467 3.51477C3.85323 3.1762 4.40218 3.17609 4.74063 3.51477L6.73377 5.5078C7.07234 5.84636 7.07234 6.39519 6.73377 6.73376C6.56455 6.9031 6.34273 6.98771 6.12079 6.98771Z" fill="white"/>
</g>
</g>
<defs>
<clipPath id="clip0_15_124">
<rect width="24" height="24" fill="white"/>
</clipPath>
</defs>
</svg>
