<svg width="48" height="48" viewBox="0 0 48 48" fill="none" xmlns="http://www.w3.org/2000/svg">
<path d="M24 48C37.2548 48 48 37.2548 48 24C48 10.7452 37.2548 0 24 0C10.7452 0 0 10.7452 0 24C0 37.2548 10.7452 48 24 48Z" fill="#2787F5"/>
<path d="M27.4608 12.7266H20.5392C14.2223 12.7266 12.7266 14.2223 12.7266 20.5392V27.4608C12.7266 33.7777 14.2223 35.2734 20.5392 35.2734H27.4608C33.7777 35.2734 35.2734 33.7777 35.2734 27.4608V20.5392C35.2734 14.2223 33.7617 12.7266 27.4608 12.7266V12.7266ZM30.9295 28.8131H29.2889C28.6683 28.8131 28.4775 28.32 27.3638 27.1903C26.393 26.2528 25.9636 26.1244 25.7231 26.1244C25.3889 26.1244 25.2933 26.2181 25.2933 26.6813V28.1611C25.2933 28.5591 25.1658 28.7977 24.1158 28.7977C22.3814 28.7977 20.4563 27.7477 19.1034 25.7902C17.0667 22.9261 16.5098 20.7778 16.5098 20.3325C16.5098 20.0939 16.6036 19.8713 17.0667 19.8713H18.7073C19.1212 19.8713 19.2802 20.062 19.4391 20.5078C20.2505 22.8469 21.6033 24.8995 22.1578 24.8995C22.3645 24.8995 22.4602 24.8058 22.4602 24.2789V21.8602C22.3964 20.7464 21.8077 20.6508 21.8077 20.2533C21.8077 20.0625 21.9666 19.8713 22.2216 19.8713H24.7997C25.1498 19.8713 25.2769 20.062 25.2769 20.4759V23.7375C25.2769 24.0877 25.4358 24.2147 25.5314 24.2147C25.7381 24.2147 25.9134 24.0872 26.295 23.7056C27.4725 22.3852 28.3158 20.3484 28.3158 20.3484C28.4273 20.1098 28.6181 19.8872 29.032 19.8872H30.6727C31.1658 19.8872 31.2773 20.1417 31.1658 20.4919C30.9591 21.4467 28.9542 24.2789 28.9542 24.2789C28.7794 24.5653 28.7156 24.6928 28.9542 25.0106C29.1291 25.2492 29.7042 25.7423 30.0839 26.1881C30.7842 26.985 31.3252 27.652 31.4681 28.1133C31.6298 28.5745 31.3908 28.8131 30.9295 28.8131V28.8131Z" fill="white"/>
</svg>
